<svg id="Layer_1" data-name="Layer 1" xmlns="http://www.w3.org/2000/svg" viewBox="0 0 773.20001 76.08733"><defs><style>.cls-1{fill:#fff;}</style></defs><polygon class="cls-1" points="21.8 55.487 21.8 31.487 10 31.487 10 67.487 45.2 67.487 45.2 55.487 21.8 55.487"/><polygon class="cls-1" points="69.3 7.987 10 7.987 10 25.787 21.8 25.787 21.8 19.987 57.5 19.987 57.5 55.587 51.5 55.587 51.5 67.487 69.3 67.487 69.3 7.987"/><polygon class="cls-1" points="84.3 7.987 102.6 7.987 102.6 52.187 128.9 52.187 128.9 67.487 84.3 67.487 84.3 7.987"/><polygon class="cls-1" points="136.6 7.987 182.5 7.987 182.5 23.187 154.9 23.187 154.9 30.687 178.5 30.687 178.5 44.887 154.9 44.887 154.9 67.587 136.5 67.587 136.5 7.987 136.6 7.987"/><path class="cls-1" d="M233.5,24.98733c0,5.7-1.9,10.1-5.8,13.2s-9.4,4.6-16.5,4.6H202v24.5h-4.2v-59.3h14.5C226.4,7.98733,233.5,13.68733,233.5,24.98733Zm-31.6,14.2h8.2c6.7,0,11.5-1.1,14.5-3.3s4.5-5.8,4.5-10.7q0-6.75-4.2-10.2c-2.8-2.3-7.2-3.3-13.1-3.3H202Z"/><path class="cls-1" d="M288.4,7.98733v37.7c0,6.7-2,12-5.8,15.7-3.8,3.8-9.3,5.7-16.2,5.7-6.8,0-12.1-1.9-15.8-5.7s-5.7-9.1-5.7-15.8v-37.6H249v37.7c0,5.6,1.6,10,4.7,13.1s7.5,4.7,13.2,4.7c5.5,0,9.8-1.5,12.9-4.6,3-3.1,4.6-7.3,4.6-12.8v-38.1Z"/><path class="cls-1" d="M299.9,7.98733h16.2c7.3,0,12.7,1.2,16.2,3.7s5.2,6.2,5.2,11.2a11.78461,11.78461,0,0,1-3.2,8.5c-2.1,2.3-5.2,3.8-9.2,4.4v.2q7.05,1.05,10.5,4.5c2.2,2.3,3.3,5.5,3.3,9.5,0,5.5-1.8,9.7-5.5,12.6-3.6,2.9-8.8,4.4-15.4,4.4H299.8v-59Zm4.1,26.4h13.1c5.5,0,9.6-.9,12.2-2.8,2.5-1.8,3.8-4.8,3.8-8.7s-1.5-6.8-4.3-8.6-7.1-2.7-12.8-2.7H304Zm0,3.6v25.5h13.9c11,0,16.5-4.5,16.5-13.4,0-8.1-5.8-12.2-17.4-12.2C317,37.98733,304,37.98733,304,37.98733Z"/><path class="cls-1" d="M350.3,67.08733v-59.1h4.2v55.2h28.2v3.9Z"/><path class="cls-1" d="M394,67.18733v-59.2h4.2v59.2Z"/><path class="cls-1" d="M437.1,11.48733q-10.8,0-17.1,6.9c-4.2,4.6-6.2,10.9-6.2,19,0,8.2,1.9,14.6,5.8,19.2,3.9,4.5,9.5,6.8,16.8,6.8a46.99743,46.99743,0,0,0,13.3-1.8v3.5a44.10512,44.10512,0,0,1-14.2,2c-8.1,0-14.5-2.6-19.1-7.8s-7-12.5-7-21.9a34.96145,34.96145,0,0,1,3.3-15.5,23.72928,23.72928,0,0,1,9.5-10.3,27.64357,27.64357,0,0,1,14.5-3.6,35.18993,35.18993,0,0,1,15.1,3.2l-1.6,3.6A27.39324,27.39324,0,0,0,437.1,11.48733Z"/><path class="cls-1" d="M516.6,67.08733h-4.2v-29.1H477.9v29.1h-4.2v-59.1h4.2v26.2h34.5v-26.2h4.2Z"/><path class="cls-1" d="M562.2,66.98733H530v-59h32.2v3.8H534v22.3h26.6v3.9H534v25.3h28.2Z"/><path class="cls-1" d="M608.5,46.28733H584.7l-8.2,20.8h-4.6l23.7-59.1h2.6l23.2,59.1h-4.7Zm-22.4-3.7h21l-8-21.2c-.7-1.7-1.5-4-2.5-6.9a51.926,51.926,0,0,1-2.4,7Z"/><path class="cls-1" d="M632.9,67.18733v-59.2h4.2v55.2h28.2v3.9H632.9Z"/><path class="cls-1" d="M687.1,67.08733H683v-55.2H663.8v-3.9h42.5v3.9H687.1Z"/><path class="cls-1" d="M760.7,67.08733h-4.2v-29.1H722v29.1h-4.2v-59.1H722v26.2h34.5v-26.2h4.2Z"/></svg>