<svg id="Layer_1" data-name="Layer 1" xmlns="http://www.w3.org/2000/svg" viewBox="0 0 601.20797 108.10224"><defs><style>.cls-1{fill:#fff;}.cls-2{fill:none;}</style></defs><polygon class="cls-1" points="25.724 81.304 25.724 44.526 7.298 44.526 7.298 99.698 62.494 99.698 62.494 81.304 25.724 81.304"/><polygon class="cls-1" points="99.262 7.718 7.311 7.718 7.311 35.31 25.698 35.31 25.698 26.191 80.876 26.191 80.876 81.304 71.692 81.304 71.692 99.698 99.262 99.698 99.262 7.718"/><path class="cls-1" d="M55.2433,36.65954c0-.47255.0024-.86386-.00166-1.2551-.001-.09862.022-.13788.14808-.16249.2213-.04322.44643-.06543.668-.1067a1.39792,1.39792,0,0,0,1.14736-.9404,2.89233,2.89233,0,0,1,.497-.85231,1.80576,1.80576,0,0,1,1.29059-.52309,6.55181,6.55181,0,0,1,3.08136.514,15.55087,15.55087,0,0,0,3.03777.77247c.78328.13264,1.57273.19067,2.3638.25549.63618.05212,1.27315.08681,1.91.1278.67148.04321,1.34445.0538,2.01485.09232.517.02975,1.03258.00384,1.54711.03344,1.52714.08779,3.0561.00454,4.58288.04936.39555.01161.79177.0312,1.188.03219.13787.00035.15961.04634.13116.155a2.89262,2.89262,0,0,1-.875,1.501,3.37636,3.37636,0,0,1-1.80951.82649,7.65556,7.65556,0,0,1-1.57572-.04945c-.25834-.01864-.29355-.005-.318.23757a1.75036,1.75036,0,0,1-1.30981,1.56816,4.98358,4.98358,0,0,1-2.12134.1638c-.2049-.01881-.31372.009-.40035.21109a3.08208,3.08208,0,0,1-1.85175,1.82156,3.63038,3.63038,0,0,1-1.25692.2977,4.24863,4.24863,0,0,1-1.30479-.22642,5.32945,5.32945,0,0,1-1.43147-.70074c-.09411-.06753-.16242-.09609-.219.03109a3.19064,3.19064,0,0,1-1.1003,1.15253,4.86334,4.86334,0,0,1-2.08393.91537,6.9552,6.9552,0,0,1-1.84638.13439c-.61952-.0485-1.24162-.08325-1.86065-.14319-.695-.06728-1.37852-.19934-2.06622-.30719-.11028-.01729-.17568-.06012-.18137-.1942-.05642-1.328-.06353-2.65671-.02992-3.98422C55.22011,37.59769,55.2271,37.08774,55.2433,36.65954Z"/><path class="cls-1" d="M42.0736,40.421a5.84679,5.84679,0,0,1-1.58858.78585,3.51527,3.51527,0,0,1-2.525-.06329,3.064,3.064,0,0,1-1.84453-1.85512c-.06846-.18822-.18916-.21848-.37156-.19174a5.74283,5.74283,0,0,1-1.86394-.0538,1.81664,1.81664,0,0,1-1.58724-1.64155c-.03075-.27246-.10247-.29956-.40973-.264a4.2102,4.2102,0,0,1-2.546-.26437,2.9903,2.9903,0,0,1-1.63237-2.05141c-.03025-.14067.08156-.11913.17605-.12346,1.17616-.0538,2.35328-.04111,3.5302-.04223.45411-.00043.9094.0185,1.36205-.00438.69869-.03532,1.39831-.016,2.09576-.04485.67192-.02775,1.3445-.04872,2.016-.08267.82616-.04178,1.65132-.10414,2.47576-.16919a27.89012,27.89012,0,0,0,3.29549-.46818,13.106,13.106,0,0,0,1.96354-.61246,7.99966,7.99966,0,0,1,1.7097-.43865,4.40584,4.40584,0,0,1,1.82051.09024,1.6,1.6,0,0,1,1.07169,1.04113,1.61091,1.61091,0,0,0,.93777,1.06943,3.48341,3.48341,0,0,0,.83965.17688c.15893.01584.33032-.00645.329.241q-.01753,3.307-.00269,6.61427a.19466.19466,0,0,1-.19947.22278c-.85964.11582-1.70983.28065-2.57853.3521-.63631.05236-1.27331.121-1.9101.11419a5.87581,5.87581,0,0,1-3.17487-.903A4.05565,4.05565,0,0,1,42.0736,40.421Z"/><path class="cls-1" d="M65.81532,46.85123a3.02375,3.02375,0,0,0-1.86959-2.37894,7.67245,7.67245,0,0,0-2.13352-.61043c-.69362-.10376-1.39048-.13565-2.08581-.1941a5.90569,5.90569,0,0,0-1.66927.12267,3.24716,3.24716,0,0,0-1.93036,1.13872,2.72,2.72,0,0,0-.64838,1.89666.7726.7726,0,0,0,.38881.6369,3.77927,3.77927,0,0,0,1.97335.44946,3.53843,3.53843,0,0,0,2.17847-.71829,2.60039,2.60039,0,0,1,.78016-.49687,3.92133,3.92133,0,0,1,1.22464-.08712c.3448.016.34407.02815.34407.33042a4.829,4.829,0,0,0,.00255.49067.9239.9239,0,0,1-.61757.96194,13.34647,13.34647,0,0,1-2.45637.93662,31.663,31.663,0,0,1-4.50313.741c-.65617.06336-1.31315.02065-1.97.06852-.47871.035-.95581.06335-1.42911.13813a10.61647,10.61647,0,0,0-3.52406,1.22224,7.54747,7.54747,0,0,0-2.1004,1.708,3.998,3.998,0,0,0-.80191,1.364A5.41456,5.41456,0,0,0,44.758,56.743,3.09017,3.09017,0,0,0,45.953,58.775c.27226.2415.59189.4398.88071.66713a1.309,1.309,0,0,0,1.50518.11391,5.67263,5.67263,0,0,1,.815-.41149c.7922-.38281,1.64913-.64385,2.45046-1.03825-.45-.28409-.91925-.53519-1.35447-.83074a1.62278,1.62278,0,0,1-.63809-.86809,3.25246,3.25246,0,0,1-.05333-1.18327.86871.86871,0,0,1,.42784-.6966,3.0198,3.0198,0,0,1,.81395-.368,17.42692,17.42692,0,0,1,3.49492-.54716c.51147-.03028,1.02353-.06173,1.53529-.0842a18.24492,18.24492,0,0,0,2.22628-.32869A15.48968,15.48968,0,0,0,61.33669,52.148a11.41421,11.41421,0,0,0,2.74381-1.63964,6.16076,6.16076,0,0,0,1.38863-1.63679,1.77606,1.77606,0,0,0,.28933-.59357A4.254,4.254,0,0,0,65.81532,46.85123Z"/><path class="cls-1" d="M56.05153,54.11857a10.718,10.718,0,0,0,1.78662-.11979,12.69313,12.69313,0,0,0,2.27634-.55972c.2112-.07023.445-.22507.628-.18683.20012.04183.2354.32235.33393.50184a4.40482,4.40482,0,0,1,.61479,2.49852,3.36336,3.36336,0,0,1-.80106,1.85019,5.98607,5.98607,0,0,1-1.55023,1.3108A14.84757,14.84757,0,0,1,55.98714,60.903c-1.08225.33932-2.17774.64506-3.25975.98495a8.32382,8.32382,0,0,0-1.78226.835,1.11944,1.11944,0,0,0-.47893.90376,1.456,1.456,0,0,0,.73783,1.44224c.26556.18355.53224.36562.82367.5428a.98388.98388,0,0,1-.41206.13238A8.96375,8.96375,0,0,0,48.623,67.138a.17921.17921,0,0,1-.23912.014,5.80349,5.80349,0,0,1-2.175-2.1198,2.58021,2.58021,0,0,1-.20848-1.54389,3.57936,3.57936,0,0,1,1.08729-1.91615,6.58585,6.58585,0,0,1,1.22319-.95648,16.83957,16.83957,0,0,1,4.9725-2.06146,7.40356,7.40356,0,0,0,2.72735-1.26552,1.80691,1.80691,0,0,0,.73381-1.83141A2.73791,2.73791,0,0,0,56.05153,54.11857Z"/><path class="cls-1" d="M53.16457,49.50905c-.27089-.00006-.54207-.00655-.81257.0026-.14034.00479-.18813-.04133-.16921-.1587a.225.225,0,0,0,.0002-.04264c-.08173-2.50119.05252-5.00658-.07173-7.50357-.13815-2.776-.08729-5.54982-.11514-8.32461-.00149-.149-.1086-.18347-.21068-.24012a3.66909,3.66909,0,0,1-1.61123-1.52379,1.157,1.157,0,0,1-.14451-.547,3.29358,3.29358,0,0,1,.0489-1.12724,2.989,2.989,0,0,1,.972-1.39445,3.04477,3.04477,0,0,1,1.35691-.62539,3.244,3.244,0,0,1,2.832.58992,2.81833,2.81833,0,0,1,1.093,2.29248,2.52821,2.52821,0,0,1-.667,1.51477,2.82,2.82,0,0,1-.9261.73631.64683.64683,0,0,0-.35521.68345c-.01219.54746-.00366,1.09529-.00358,1.643.0002,2.29031.043,4.58144-.01179,6.87071-.05086,2.12515-.00545,4.24953-.03721,6.374a2.52724,2.52724,0,0,1-.15518.67737c-.0275.09183-.10163.10665-.19921.10474C53.70645,49.50563,53.43546,49.50911,53.16457,49.50905Z"/><path class="cls-1" d="M52.18274,64.0073c.00033-.30584.00515-.61176-.0021-.91746a.24879.24879,0,0,1,.15555-.25217,11.163,11.163,0,0,1,2.77618-.94068,22.29849,22.29849,0,0,0,2.65543-.87808.83974.83974,0,0,1,.90184.14476,4.46546,4.46546,0,0,1,1.257,1.70966,2.62761,2.62761,0,0,1,.18746,1.35028,3.539,3.539,0,0,1-.47689,1.52345,4.212,4.212,0,0,1-1.8562,1.64581A24.637,24.637,0,0,1,53.88158,68.712a9.99067,9.99067,0,0,0-2.26446.94364.73537.73537,0,0,0-.37233.85185c.06921.24343.14122.48645.22393.72639.02892.084.045.12623-.065.17949a22.31041,22.31041,0,0,0-2.08653,1.16139.55691.55691,0,0,1-.71856-.13271,2.62067,2.62067,0,0,1-.87214-1.49889,3.36979,3.36979,0,0,1,.73584-2.52492,4.49928,4.49928,0,0,1,1.40009-1.14519,12.01114,12.01114,0,0,1,2.349-.98685c.715-.26566,1.48126-.39888,2.19061-.68055a5.201,5.201,0,0,0,1.23238-.63964,1.51953,1.51953,0,0,0,.54182-.84308c.05739-.22412-.132-.43334-.26117-.632a3.17309,3.17309,0,0,0-1.46395-1.01339c-.16717-.07674-.15088.06651-.15942.12249a6.68813,6.68813,0,0,0-.0971.85844,11.95539,11.95539,0,0,0-.051,1.336c.01062.118-.03954.17252-.15956.21694a11.79209,11.79209,0,0,1-1.63173.45314c-.13555.029-.11119-.05022-.12269-.12008A9.16786,9.16786,0,0,1,52.18274,64.0073Z"/><path class="cls-1" d="M50.00807,49.82695c-.35125.10569-.65076.18215-.93853.28487a10.67068,10.67068,0,0,0-2.77815,1.42578,4.9743,4.9743,0,0,0-.6951.62912.19693.19693,0,0,1-.2726.0458,17.21075,17.21075,0,0,1-2.88451-1.56432,6.47909,6.47909,0,0,1-1.24984-1.25464A2.79063,2.79063,0,0,1,40.546,48.1957a3.422,3.422,0,0,1,.34987-2.54531,3.55148,3.55148,0,0,1,1.33154-1.17087,6.74339,6.74339,0,0,1,2.75441-.77705c.82217-.07353,1.64529-.08489,2.47-.08337a3.66335,3.66335,0,0,1,1.95021.52418,2.7876,2.7876,0,0,1,1.43015,2.36089c.0297.63964-.35.94685-1.0055,1.12506a6.5763,6.5763,0,0,1-2.07592.11635,2.12791,2.12791,0,0,1-.97381-.38681,4.87668,4.87668,0,0,0-1.25939-.71775,4.05431,4.05431,0,0,0-1.47849-.03433c-.06074.00559-.07492.03362-.083.082a1.70074,1.70074,0,0,0,.08795,1.13621c.17732.33418.54923.44558.86291.61214a12.73274,12.73274,0,0,0,3.44186,1.07208C48.87993,49.61873,49.41492,49.7138,50.00807,49.82695Z"/><path class="cls-1" d="M54.36883,70.10818c-.68544.52774-1.4478.89192-2.19589,1.37768a11.709,11.709,0,0,1,.04914-1.31405c.02311-.10746.08059-.13655.17239-.16359.80033-.23574,1.61259-.4352,2.42125-.64617a10.83637,10.83637,0,0,0,2.15143-.76667,3.22493,3.22493,0,0,0,.45335-.29884c.10441-.077.1531-.05966.21427.04424a2.49613,2.49613,0,0,1,.23529.74381,1.81841,1.81841,0,0,1-.40372,1.57381,4.3807,4.3807,0,0,1-1.34653,1.142,25.35517,25.35517,0,0,1-3.32993,1.45c-.8308.30571-1.66938.59529-2.48131.941-.663.28229-1.34607.52317-2.02112.78064-.179.06826-.17855-.08011-.24869-.12224-.23111-.13861-.22642-.18616-.00465-.34619q.49344-.35613.99993-.69777c1.12376-.7616,2.38181-1.33293,3.5731-1.99888a10.65827,10.65827,0,0,0,1.25563-.76947A1.07786,1.07786,0,0,0,54.36883,70.10818Z"/><path class="cls-1" d="M54.38779,73.56709c-.06605.52772-.1109,1.05249-.1572,1.57777-.07045.79876-.11425,1.59958-.22716,2.39581-.06609.466-.11777.93376-.19527,1.39872-.00935.05613-.00023.09914-.09123.11978a3.32672,3.32672,0,0,1-.92208.02964c-.148-.00786-.12044-.17495-.12994-.27431-.0617-.64417-.20666-1.279-.25082-1.92565-.05509-.80651-.25341-1.60143-.238-2.41555a.556.556,0,0,1,.37288-.53516c.73538-.34364,1.521-.58855,2.26319-.91907.2726-.12139.54626-.23887.83185-.33894a.75676.75676,0,0,1,.63922.05769,8.91982,8.91982,0,0,1,1.21114.7592c.39139.2791.72984.60943,1.0888.91992.08148.07047.06706.0888-.01089.16165a.55316.55316,0,0,1-.56829.15065,19.02837,19.02837,0,0,1-3.54017-1.13941C54.44258,73.58123,54.41935,73.57645,54.38779,73.56709Z"/><path class="cls-1" d="M52.183,58.00087c0-.89689.00651-1.77852-.00436-2.65994a6.36038,6.36038,0,0,0,.05186-.69591c-.01534-.12566.11279-.117.17514-.12611a7.14239,7.14239,0,0,1,.88868-.10075,3.87682,3.87682,0,0,0,.8542-.03764c.1141-.02774.18957.00094.18746.13822-.00822.53344.02863,1.06912-.01441,1.59989-.02933.36192-.02948.722-.03215,1.08284-.0009.12075-.05677.16513-.16548.216A8.9446,8.9446,0,0,1,52.183,58.00087Z"/><path class="cls-1" d="M57.09335,45.71687c.03526-.05133.06075-.13456.10969-.14764a1.462,1.462,0,0,1,1.31278.0869c.13927.10213.00557.216-.114.29731C58.09452,46.16234,57.74312,46.10128,57.09335,45.71687Z"/><path class="cls-1" d="M49.26272,45.71687c-.03526-.05133-.06073-.13456-.10968-.14764a1.462,1.462,0,0,0-1.31272.0869c-.13928.10213-.00557.216.114.29731C48.26157,46.16234,48.613,46.10128,49.26272,45.71687Z"/><polygon class="cls-1" points="301.087 44.567 304.391 44.567 304.391 28.044 321.01 28.044 321.01 25.226 304.391 25.226 304.391 12.688 323.101 12.688 323.101 9.869 301.087 9.869 301.087 44.567"/><path class="cls-1" d="M341.71623,9.14036c-10.93463,0-16.37742,8.55279-16.37735,18.07761,0,9.52519,5.44279,18.07817,16.37735,18.07817,10.88565,0,16.32844-8.553,16.32844-18.07817C358.04467,17.69334,352.60188,9.14036,341.71623,9.14036Zm0,33.33709v-.00019c-9.18477,0-13.07253-7.67816-13.07253-15.25929,0-7.58063,3.8877-15.25948,13.07253-15.25948,9.13585,0,13.02361,7.67873,13.02361,15.25948C354.73984,34.79928,350.85214,42.47745,341.71623,42.47745Z"/><path class="cls-1" d="M386.52819,31.34855c0,8.01866-3.74085,11.12884-10.20485,11.12884-6.41508,0-10.15706-3.11031-10.15706-11.12884V9.86876h-3.3037v22.209a13.4879,13.4879,0,0,0,26.97044,0V9.86876h-3.30483Z"/><polygon class="cls-1" points="420.453 39.221 420.357 39.221 400.14 9.869 396.447 9.869 396.447 44.567 399.752 44.567 399.752 15.214 399.849 15.214 420.065 44.567 423.758 44.567 423.758 9.869 420.453 9.869 420.453 39.221"/><path class="cls-1" d="M442.71649,9.86876H430.71415v34.698h12.00234c10.49748-.24313,15.94027-5.87994,15.94027-17.349C458.65676,15.74933,453.214,10.11177,442.71649,9.86876Zm-1.65182,31.87929H434.0178V12.68739h7.04687c9.96216,0,14.28707,4.13077,14.28707,14.53033S451.02683,41.74805,441.06467,41.74805Z"/><polygon class="cls-2" points="468.916 30.96 482.572 30.96 475.865 13.174 468.916 30.96"/><path class="cls-1" d="M477.85753,9.86879h-3.693L460.16875,44.56685H463.716l4.1803-10.78827h15.79339l4.22815,10.78827h3.54749Zm-8.94122,21.091,6.949-17.78614,6.70648,17.78614Z"/><polygon class="cls-1" points="487.582 12.688 499.683 12.688 499.683 44.567 502.987 44.567 502.987 12.688 515.088 12.688 515.088 9.869 487.582 9.869 487.582 12.688"/><rect class="cls-1" x="518.59058" y="9.86876" width="3.30483" height="34.6981"/><path class="cls-1" d="M543.66676,9.14036c-10.93463,0-16.37742,8.55279-16.37736,18.07761,0,9.52519,5.44285,18.07817,16.37736,18.07817,10.88564,0,16.32843-8.553,16.32843-18.07817C559.99519,17.69334,554.5524,9.14036,543.66676,9.14036Zm0,33.33709v-.00019c-9.18477,0-13.07253-7.67816-13.07253-15.25929,0-7.58063,3.88776-15.25948,13.07253-15.25948,9.13578,0,13.0236,7.67873,13.0236,15.25948C556.69036,34.79928,552.80266,42.47745,543.66676,42.47745Z"/><polygon class="cls-1" points="589.111 9.869 589.111 39.221 589.014 39.221 568.798 9.869 565.105 9.869 565.105 44.567 568.409 44.567 568.409 15.214 568.506 15.214 588.722 44.567 592.415 44.567 592.415 9.869 589.111 9.869"/><polygon class="cls-1" points="128.246 8.119 117.1 8.119 117.1 44.29 144.257 44.29 144.257 35.019 128.246 35.019 128.246 8.119"/><rect class="cls-1" x="151.5491" y="8.11922" width="11.14673" height="36.17036"/><polygon class="cls-1" points="193.044 27.471 192.942 27.471 182.403 8.119 171.004 8.119 171.004 44.29 181.542 44.29 181.542 24.533 181.643 24.533 192.739 44.29 203.581 44.29 203.581 8.119 193.044 8.119 193.044 27.471"/><path class="cls-1" d="M233.62274,27.82571c0,3.64718,0,8.308-5.26965,8.308-5.47164,0-5.42116-4.66085-5.42116-8.308V8.11922h-11.146V30.3079c0,10.08095,5.37062,14.84289,16.51672,14.84289,11.14672,0,16.46617-4.76194,16.46617-14.84289V8.11922h-11.146Z"/><polygon class="cls-1" points="286.869 8.119 274.506 8.119 269.136 17.947 263.664 8.119 250.593 8.119 262.499 25.039 249.427 44.29 262.195 44.29 268.579 33.499 274.76 44.29 288.186 44.29 275.267 25.141 286.869 8.119"/><path class="cls-1" d="M135.19278,59.42519c8.95551,0,14.9828,5.7198,14.9828,14.67631,0,8.87211-6.39005,14.5919-15.79274,14.5919h-5.74692V99.68682H116.80544V59.42519Zm-6.55686,20.53528h3.32013c3.93412,0,6.2775-1.98062,6.2775-5.83133,0-3.82207-2.34338-5.8032-6.19409-5.8032h-3.40354Z"/><path class="cls-1" d="M169.05933,84.03477c0,4.2406,2.09317,6.55585,5.91574,6.55585,3.82157,0,5.91474-2.31525,5.91474-6.55585V59.42519h11.82948V85.34513c0,9.17961-7.11457,15.03908-17.74422,15.03908-10.63065,0-17.74522-5.85947-17.74522-15.03908V59.42519h11.82948Z"/><path class="cls-1" d="M201.16935,99.68682V59.42519h19.78111c8.231,0,13.05845,3.76681,13.05845,10.04481,0,4.6315-3.51608,8.11895-8.17573,8.7048v.22358c5.44144.13918,9.98854,4.24061,9.98854,9.5695,0,7.0593-5.58012,11.71894-14.201,11.71894ZM212.99882,75.552h4.57624c3.04077,0,4.938-1.59022,4.938-4.01752,0-2.48306-1.78567-3.98988-4.77118-3.98988h-4.74305Zm5.05054,16.01532c3.65476,0,5.74693-1.646,5.74693-4.68677,0-2.874-2.1203-4.5481-5.66352-4.5481h-5.13395v9.23487Z"/><path class="cls-1" d="M270.21985,99.68682H242.59764V59.42519h11.82948V90.28413h15.79273Z"/><path class="cls-1" d="M277.55047,99.68682V59.42519H289.38V99.68682Z"/><path class="cls-1" d="M296.84723,79.54194c0-13.28053,7.67228-20.81413,19.97706-20.81413,10.63066,0,18.6657,6.91962,18.69383,16.90815h-11.328c-.27935-4.57573-3.26386-7.617-7.36579-7.617-4.85458,0-7.9235,4.29688-7.9235,11.49535,0,7.28189,3.04078,11.57876,7.95164,11.57876,4.07379,0,7.03116-2.9855,7.39393-7.64514h11.327c-.05527,10.0448-7.89536,16.93629-18.7491,16.93629C304.49238,100.38421,296.84723,92.82347,296.84723,79.54194Z"/><path class="cls-1" d="M382.65415,99.68682V84.11817H368.48028V99.68682H356.6508V59.42519h11.82948v15.2903h14.17387V59.42519h11.83048V99.68682Z"/><path class="cls-1" d="M431.33769,99.68682h-28.403V59.42519h28.403v9.40269H414.76417V75.329h15.54151v8.48271H414.76417v6.47245h16.57352Z"/><path class="cls-1" d="M464.19936,91.67891H451.92271l-2.09216,8.00791H437.777l13.14185-40.26163H465.762l13.14186,40.26163H466.29153Zm-10.12821-8.34153h7.97977l-3.87784-14.621H457.95Z"/><path class="cls-1" d="M513.02259,99.68682H485.40037V59.42519h11.82948V90.28413h15.79274Z"/><path class="cls-1" d="M525.23392,99.68682V68.82788H514.6314V59.42519h33.03552v9.40269H537.0644V99.68682Z"/><path class="cls-1" d="M580.58486,99.68682V84.11817H566.411V99.68682H554.58151V59.42519H566.411v15.2903h14.17387V59.42519h11.83048V99.68682Z"/></svg>