<?xml version="1.0" standalone="no"?>
<!DOCTYPE svg PUBLIC "-//W3C//DTD SVG 20010904//EN"
 "http://www.w3.org/TR/2001/REC-SVG-20010904/DTD/svg10.dtd">
<svg version="1.0" xmlns="http://www.w3.org/2000/svg"
 width="1501.000000pt" height="1501.000000pt" viewBox="0 0 1501.000000 1501.000000"
 preserveAspectRatio="xMidYMid meet">
<metadata>
Created by potrace 1.11, written by Peter Selinger 2001-2013
</metadata>
<g transform="translate(0.000000,1501.000000) scale(0.100000,-0.100000)"
fill="#000000" stroke="none">
<path d="M312 12568 l0 -2158 1439 0 1439 0 -1 678 c0 372 0 693 0 712 l1 35
4308 0 4307 0 0 -4305 0 -4305 -695 -1 c-382 -1 -705 -2 -716 -3 l-22 -1 0
-1435 0 -1435 47 -1 c61 -1 4232 -1 4251 0 13 1 15 806 15 7186 0 3952 -2
7186 -5 7186 -3 1 -3237 2 -7187 3 l-7181 1 0 -2157z"/>
<path d="M7395 11559 c-70 -14 -79 -17 -125 -35 -119 -46 -221 -150 -265 -268
-27 -71 -25 -219 4 -278 42 -87 140 -184 239 -238 l47 -25 1 -390 c1 -347 10
-801 20 -1000 2 -38 4 -301 5 -583 0 -282 3 -521 6 -531 5 -18 16 -19 154 -19
167 0 160 -4 175 78 8 49 12 525 14 1672 1 737 1 747 21 772 12 15 38 35 59
46 47 24 118 92 157 150 108 161 81 372 -65 512 -66 64 -129 101 -209 124 -65
19 -177 25 -238 13z"/>
<path d="M6449 10806 c-2 -2 -26 -6 -54 -10 -71 -8 -188 -40 -291 -79 -134
-51 -271 -87 -438 -113 -21 -3 -46 -7 -55 -9 -9 -2 -44 -6 -76 -10 -33 -4 -67
-9 -76 -10 -8 -2 -53 -6 -100 -10 -46 -3 -104 -8 -129 -10 -281 -24 -637 -36
-1180 -40 -239 -2 -461 -4 -494 -4 l-58 -1 7 -37 c31 -166 201 -319 390 -351
51 -9 198 -9 251 0 49 8 63 0 70 -38 17 -100 56 -165 123 -209 66 -44 131 -57
301 -59 l155 -2 40 -73 c51 -93 90 -138 157 -184 51 -35 155 -78 223 -92 54
-11 180 -5 239 10 70 18 183 67 245 105 l44 28 44 -58 c23 -32 64 -77 91 -99
90 -80 273 -167 387 -185 22 -4 55 -9 73 -12 69 -11 302 -5 427 11 17 2 62 6
100 10 39 4 72 9 75 10 3 2 30 6 60 10 30 3 62 8 70 10 8 2 35 7 60 10 25 4
49 10 53 15 5 4 9 250 9 546 l0 539 -23 7 c-13 3 -53 12 -89 18 -35 6 -76 18
-91 25 -47 25 -98 85 -119 143 -53 141 -135 190 -331 197 -48 2 -89 2 -90 1z"/>
<path d="M8345 10798 c-27 -5 -68 -18 -90 -30 -69 -37 -97 -74 -160 -211 -33
-70 -100 -112 -201 -122 -96 -11 -90 1 -93 -207 -8 -602 -5 -887 10 -902 3 -3
25 -9 50 -12 55 -8 68 -10 150 -23 36 -6 90 -13 120 -16 30 -3 76 -8 103 -10
63 -6 242 -17 281 -17 44 -1 188 13 196 18 4 2 24 6 45 10 157 25 369 157 451
281 l36 53 31 -20 c159 -101 369 -154 500 -127 176 37 320 141 387 281 15 33
33 62 39 66 6 4 61 6 123 4 246 -5 394 64 440 207 10 28 17 62 17 74 0 27 15
34 61 28 59 -7 201 -7 259 0 82 10 209 77 273 142 69 71 136 204 117 235 -6 9
-113 13 -456 16 -529 4 -925 15 -1079 28 -27 3 -102 8 -165 12 -63 3 -122 8
-131 9 -9 2 -56 6 -105 10 -49 4 -96 9 -106 10 -9 2 -38 6 -65 10 -158 22
-419 87 -518 131 -140 61 -383 95 -520 72z"/>
<path d="M6387 9114 c-1 -1 -54 -5 -117 -8 -176 -11 -263 -27 -384 -74 -202
-79 -328 -195 -372 -342 -36 -121 -26 -280 24 -377 60 -116 198 -259 337 -348
67 -43 380 -205 396 -205 4 0 29 21 56 46 111 106 341 234 542 300 l115 38
-95 18 c-275 53 -355 71 -455 103 -60 19 -118 39 -129 45 -11 5 -63 29 -115
53 -102 48 -121 64 -143 117 -14 35 -16 144 -3 158 12 12 109 17 175 10 74 -9
140 -37 231 -100 100 -69 146 -83 275 -83 293 0 399 58 389 216 -13 209 -181
381 -414 425 -28 5 -307 12 -313 8z"/>
<path d="M8300 9099 c-157 -27 -242 -69 -332 -162 -82 -85 -123 -179 -127
-292 -2 -79 21 -117 91 -149 83 -38 162 -54 259 -54 149 0 256 34 363 114 65
49 106 73 139 80 38 9 191 11 207 3 12 -6 16 -25 15 -91 -1 -114 -17 -140
-115 -189 -113 -56 -351 -141 -440 -155 -14 -3 -54 -11 -90 -19 -36 -8 -81
-17 -100 -20 -19 -3 -60 -10 -90 -15 -65 -11 -104 -16 -185 -26 -33 -3 -69 -8
-80 -10 -24 -4 -164 -12 -360 -19 -77 -3 -151 -7 -165 -9 -14 -3 -45 -7 -70
-10 -53 -7 -63 -9 -150 -29 -372 -87 -718 -323 -839 -572 -53 -108 -71 -201
-67 -345 2 -63 9 -128 16 -145 56 -135 106 -196 235 -291 44 -32 82 -61 85
-65 3 -3 23 -12 45 -21 68 -27 118 -18 240 43 61 31 180 84 265 118 156 62
188 77 180 83 -17 13 -95 61 -148 93 -95 56 -142 109 -159 180 -9 39 -11 156
-3 191 22 99 145 153 455 204 57 9 105 15 205 25 25 2 97 7 160 10 179 10 281
19 344 31 11 2 36 6 56 9 20 3 47 8 60 10 14 3 40 8 58 11 61 10 277 74 372
111 403 154 669 357 798 608 24 45 33 101 34 189 0 145 -44 254 -143 354 -100
101 -327 185 -559 207 -41 4 -88 9 -105 11 -71 8 -314 10 -355 3z"/>
<path d="M327 8972 c-16 -3 -17 -286 -17 -4313 0 -2370 3 -4309 8 -4310 9 -1
8548 -1 8588 0 l31 1 0 1438 0 1437 -2861 -1 c-1574 0 -2866 2 -2872 4 -9 2
-12 724 -12 2868 0 1576 -3 2868 -6 2871 -6 6 -2828 11 -2859 5z"/>
<path d="M8570 7584 c-36 -13 -65 -24 -65 -24 0 -1 -7 -3 -15 -5 -8 -2 -60
-15 -115 -29 -55 -14 -122 -27 -150 -31 -27 -3 -63 -8 -80 -11 -16 -3 -70 -7
-120 -9 -49 -2 -92 -4 -93 -4 -2 -1 8 -15 23 -32 83 -99 109 -240 63 -340 -30
-66 -69 -106 -157 -163 -115 -74 -210 -114 -354 -152 -510 -132 -925 -360
-1072 -589 -115 -180 -107 -373 24 -529 82 -98 250 -236 288 -236 7 0 43 20
80 44 130 84 239 131 417 181 l59 17 -29 23 c-16 14 -33 24 -37 25 -19 1 -120
84 -142 118 -50 76 -49 187 3 251 57 70 259 156 602 255 290 83 416 129 582
212 171 85 258 143 354 239 66 65 89 98 122 166 46 96 54 135 52 234 -1 83 -4
105 -20 165 -14 54 -98 232 -114 242 -17 11 -35 8 -106 -18z"/>
<path d="M7649 7436 c-3 -3 -53 -8 -112 -10 -129 -6 -195 -15 -204 -29 -6 -11
-12 -504 -6 -523 4 -10 22 -7 128 19 32 9 172 59 184 66 16 10 20 56 24 281 2
134 -3 207 -14 196z"/>
<path d="M8185 6389 c-118 -46 -300 -104 -425 -136 -74 -19 -139 -35 -145 -36
-91 -24 -280 -108 -287 -128 -7 -21 -2 -378 6 -386 13 -13 278 55 290 75 2 4
7 54 10 112 9 155 15 222 22 252 l5 27 48 -18 c82 -31 160 -92 210 -164 38
-56 37 -88 -5 -153 -51 -78 -245 -174 -446 -219 -91 -20 -316 -103 -427 -157
-265 -128 -403 -303 -415 -529 -6 -116 31 -210 118 -299 71 -72 88 -71 223 9
56 33 135 77 175 97 40 20 75 38 76 40 2 1 -1 18 -7 36 -6 18 -11 35 -11 38 0
3 -7 26 -14 51 -13 41 -12 50 4 86 15 33 30 46 96 80 115 59 189 89 311 123
59 17 133 38 163 46 196 56 456 161 544 219 148 98 248 268 262 444 8 99 -6
161 -59 266 -38 73 -145 203 -186 225 -36 18 -87 18 -136 -1z"/>
<path d="M8118 5239 c-55 -41 -281 -127 -406 -154 -30 -7 -41 -9 -172 -44 -63
-17 -134 -36 -157 -42 -24 -7 -45 -19 -48 -28 -7 -23 -17 -211 -11 -211 6 0
250 145 295 176 46 31 51 30 41 -5 -23 -82 -96 -133 -475 -331 -142 -74 -287
-158 -370 -215 -107 -73 -165 -117 -165 -124 0 -4 11 -18 25 -31 30 -28 9 -34
290 77 216 85 279 110 385 148 346 125 576 231 689 318 66 51 137 137 163 197
16 37 19 59 15 125 -6 90 -32 165 -56 165 -9 0 -28 -10 -43 -21z"/>
<path d="M7780 4539 c-52 -22 -135 -56 -185 -75 -103 -39 -110 -42 -187 -78
-77 -35 -89 -60 -82 -162 2 -44 9 -104 14 -134 5 -30 12 -83 15 -117 8 -89 15
-150 25 -218 5 -33 12 -85 16 -115 3 -30 10 -59 15 -64 8 -9 58 -10 142 -5 17
1 27 7 28 18 0 9 2 25 5 36 2 11 8 54 13 95 6 41 12 84 15 95 2 11 7 56 10
100 4 44 9 96 11 115 2 19 6 71 10 115 9 121 25 278 29 282 1 1 34 -11 74 -27
115 -47 238 -87 377 -123 135 -34 168 -35 200 -3 15 14 13 18 -17 45 -189 164
-338 261 -402 261 -17 0 -74 -19 -126 -41z"/>
</g>
</svg>
